<svg xmlns="http://www.w3.org/2000/svg" viewBox="0 0 65 65"><defs><style>.cls-1{fill:none;}.cls-2{fill:#231815;}</style></defs><title>資產 6</title><g id="圖層_2" data-name="圖層 2"><g id="圖層_1-2" data-name="圖層 1"><rect class="cls-1" width="65" height="65"/><rect class="cls-2" x="8.53" y="7.55" width="47.95" height="3.55" rx="1.78"/><rect class="cls-2" x="8.53" y="20.02" width="47.95" height="3.55" rx="1.78"/><rect class="cls-2" x="8.53" y="32.5" width="47.95" height="3.55" rx="1.78"/><path class="cls-2" d="M7.82,56.71V46.18H9.47l4.13,6.37,4-6.37h1.64V56.71H17.38v-6.5a4.36,4.36,0,0,1,0-.48c0-.19,0-.41.05-.65-.11.28-.21.5-.29.68s-.16.32-.22.43l-3.29,5.26h-.41l-3.3-5.28c-.12-.2-.22-.39-.31-.56a3.15,3.15,0,0,1-.21-.52c0,.22,0,.42,0,.6s0,.35,0,.52v6.5Z"/><path class="cls-2" d="M22.28,56.71V46.18h9V48H24.32v2.35h4v1.79h-4v2.61h7v2Z"/><path class="cls-2" d="M33.8,56.71V46.18h1.4l6.16,6.21c.21.21.4.4.56.58a5.79,5.79,0,0,1,.44.57c0-.59-.06-1-.07-1.26s0-.43,0-.57V46.18h1.84V56.71h-1.4l-6.43-6.5-.4-.45a4.23,4.23,0,0,1-.33-.41c0,.33.05.64.06.92s0,.54,0,.76v5.68Z"/><path class="cls-2" d="M49.34,46.18v8.55h5.81V46.18h2v8a3.2,3.2,0,0,1-.44,2,2.23,2.23,0,0,1-1.73.52H49.47a2.24,2.24,0,0,1-1.72-.52,3.12,3.12,0,0,1-.45-2v-8Z"/></g></g></svg>